<svg width="103" height="100" viewBox="0 0 103 100" fill="none" xmlns="http://www.w3.org/2000/svg">
<g clip-path="url(#clip0_454_2)">
<path d="M5.53713 26.3945C-5.20841 48.2756 2.12695 67.4448 7.13783 74.2942C8.2513 53.1212 19.1083 38.7512 26.7638 34.1001C34.4193 29.4489 36.9944 33.8224 36.8552 40.9726C36.716 48.1229 36.6464 47.0816 30.7308 52.4269C24.8151 57.7723 18.8299 69.3654 20.7786 83.0411C22.7273 96.7168 39.8478 99.9795 47.2945 99.9795C54.7412 99.9795 66.9204 100.951 82.7186 89.4971C98.5168 78.0429 102.275 62.6316 102.971 52.4269C103.528 44.2631 95.9649 42.685 92.114 42.9164L69.7738 41.528C72.2793 35.4885 80.5611 31.6704 85.1544 23.34C89.7477 15.0096 82.649 10.2891 73.88 5.29083C66.8647 1.29224 54.9964 0.107493 49.9391 0.0149423C39.6158 -0.309017 16.2827 4.51335 5.53713 26.3945Z" fill="#7BC580"/>
</g>
<defs>
<clipPath id="clip0_454_2">
<rect width="103" height="100" fill="white"/>
</clipPath>
</defs>
</svg>
